<?xml version="1.0" standalone="no"?><!DOCTYPE svg PUBLIC "-//W3C//DTD SVG 1.1//EN" "http://www.w3.org/Graphics/SVG/1.1/DTD/svg11.dtd"><svg class="icon" width="200px" height="200.00px" viewBox="0 0 1024 1024" version="1.1" xmlns="http://www.w3.org/2000/svg"><path fill="#cdcdcd" d="M758.4 265.6H377.6v-44.8c0-12.3-10.1-22.4-22.4-22.4-12.3 0-22.4 10.1-22.4 22.4v44.8h-67.2c-12.3 0-22.4 10.1-22.4 22.4s10.1 22.4 22.4 22.4h67.2v44.8c0 12.3 10.1 22.4 22.4 22.4 12.3 0 22.4-10.1 22.4-22.4v-44.8h380.8c12.3 0 22.4-10.1 22.4-22.4s-10.1-22.4-22.4-22.4zM355.2 825.6c12.3 0 22.4-10.1 22.4-22.4v-44.8h380.8c12.3 0 22.4-10.1 22.4-22.4s-10.1-22.4-22.4-22.4H377.6v-44.8c0-12.3-10.1-22.4-22.4-22.4-12.3 0-22.4 10.1-22.4 22.4v44.8h-67.2c-12.3 0-22.4 10.1-22.4 22.4s10.1 22.4 22.4 22.4h67.2v44.8c0 12.3 10.1 22.4 22.4 22.4zM265.6 534.4H512c12.4 0 22.4-10 22.4-22.4 0-12.4-10-22.4-22.4-22.4H265.6c-12.3 0-22.4 10.1-22.4 22.4 0 12.3 10.1 22.4 22.4 22.4zM758.4 489.6h-112v-44.8c0-12.3-10.1-22.4-22.4-22.4s-22.4 10.1-22.4 22.4V579.2c0 12.3 10.1 22.4 22.4 22.4s22.4-10.1 22.4-22.4v-44.8h112c12.3 0 22.4-10.1 22.4-22.4 0-12.3-10.1-22.4-22.4-22.4z"  /><path fill="#cdcdcd" d="M937.6 243.2c12.4 0 22.4-10 22.4-22.4v-112c0-24.7-20.1-44.8-44.8-44.8H108.8C84.1 64 64 84.1 64 108.8v806.4c0 24.7 20.1 44.8 44.8 44.8h806.4c24.7 0 44.8-20.1 44.8-44.8V400c0-12.4-10-22.4-22.4-22.4-12.4 0-22.4 10-22.4 22.4v492.8c0 12.4-10 22.4-22.4 22.4H131.2c-12.4 0-22.4-10-22.4-22.4V131.2c0-12.4 10-22.4 22.4-22.4h761.6c12.4 0 22.4 10 22.4 22.4v89.6c0 12.4 10 22.4 22.4 22.4z"  /></svg>